<?xml version="1.0" ?><svg height="306.743" id="svg2148" width="500.232" xmlns="http://www.w3.org/2000/svg" xmlns:cc="http://creativecommons.org/ns#" xmlns:dc="http://purl.org/dc/elements/1.1/" xmlns:inkscape="http://www.inkscape.org/namespaces/inkscape" xmlns:rdf="http://www.w3.org/1999/02/22-rdf-syntax-ns#" xmlns:sodipodi="http://sodipodi.sourceforge.net/DTD/sodipodi-0.dtd" xmlns:svg="http://www.w3.org/2000/svg"><defs id="defs2150"><marker id="ArrowEnd" markerHeight="3" markerUnits="strokeWidth" markerWidth="4" orient="auto" refX="0" refY="5" viewBox="0 0 10 10"><path d="M 0 0 L 10 5 L 0 10 z" id="path2153"/></marker><marker id="ArrowStart" markerHeight="3" markerUnits="strokeWidth" markerWidth="4" orient="auto" refX="10" refY="5" viewBox="0 0 10 10"><path d="M 10 0 L 0 5 L 10 10 z" id="path2156"/></marker></defs><path d="M 101.8125 92.875 C 97.2675 92.875 94.468751 95.462496 94.46875 100.5625 L 94.46875 113.3125 L 66.875 113.3125 C 52.028 113.3125 44.167251 121.2625 40.53125 130.5625 L 21.1875 179.40625 C 13.5355 180.36825 -2.414645e-17 189.16675 0 205.84375 L 0 268 L 18.78125 268 L 18.78125 287.84375 C 18.78125 312.28575 54.0625 311.99774 54.0625 287.84375 L 54.0625 268 L 117.53125 268 L 117.59375 268 L 181.0625 268 L 181.0625 287.84375 C 181.0625 311.99775 216.34375 312.28574 216.34375 287.84375 L 216.34375 268 L 235.125 268 L 235.125 205.84375 C 235.125 189.16675 221.55825 180.36826 213.90625 179.40625 L 194.59375 130.5625 C 190.95775 121.2625 183.06575 113.3125 168.21875 113.3125 L 140.9375 113.3125 L 140.9375 100.5625 C 140.9375 95.4625 138.17 92.874999 133.625 92.875 L 117.59375 92.875 L 117.53125 92.875 L 101.8125 92.875 z M 66.65625 131.09375 L 117.5 131.09375 L 117.53125 131.09375 L 117.59375 131.09375 L 168.46875 131.09375 C 174.83274 131.15175 177.557 135.06875 179.375 140.46875 L 193.90625 178.25 L 117.59375 178.25 L 117.53125 178.25 L 117.5 178.25 L 41.1875 178.25 L 55.75 140.46875 C 57.567999 135.06875 60.29325 131.15175 66.65625 131.09375 z M 37 197.0625 C 46.002999 197.0625 53.28125 204.43625 53.28125 213.53125 C 53.281251 222.62725 46.003 230 37 230 C 27.997999 230 20.6875 222.62725 20.6875 213.53125 C 20.687499 204.43625 27.998 197.0625 37 197.0625 z M 198.125 197.0625 C 207.128 197.0625 214.40625 204.43625 214.40625 213.53125 C 214.40625 222.62725 207.128 230 198.125 230 C 189.122 230 181.81251 222.62725 181.8125 213.53125 C 181.8125 204.43625 189.122 197.0625 198.125 197.0625 z " id="path2162" style="fill:#000000;stroke:none"/><path d="" id="path2174" style="fill:#ffffff;stroke:none"/><path d="" id="path2180" style="fill:#ffffff;stroke:none"/><path d="M 371.90625 0 C 372.31334 0 372.74487 0.02803997 373.15625 0.03125 C 373.55956 0.028163129 373.97581 -6.3432248e-20 374.375 0 L 371.90625 0 z M 373.15625 0.03125 C 344.44295 0.25101841 305.55338 8.2106082 289.3125 14.875 C 272.8435 21.633 261.83625 28.38625 258.40625 45.28125 L 246.0625 138.9375 L 246.0625 268 L 267.34375 268 L 267.34375 288.25 C 267.34375 312.92701 304 312.927 304 288.25 L 304 268 L 371.6875 268 L 371.90625 268 L 442.28125 268 L 442.28125 288.25 C 442.28125 312.92701 478.96875 312.927 478.96875 288.25 L 478.96875 268 L 500.21875 268 L 500.21875 138.9375 L 487.875 45.28125 C 484.44399 28.38625 473.469 21.633 457 14.875 C 440.76462 8.212465 401.86629 0.25527912 373.15625 0.03125 z M 320.875 23.65625 L 371.90625 23.65625 L 425.4375 23.65625 C 435.72951 23.65625 435.7295 38.84375 425.4375 38.84375 L 371.78125 38.84375 L 320.875 38.84375 C 310.58099 38.843752 310.581 23.65625 320.875 23.65625 z M 293.125 54.21875 L 371.78125 54.21875 L 453.1875 54.21875 C 464.0605 54.21875 466.89875 59.652251 468.21875 67.90625 L 477.84375 135.84375 C 478.73975 142.35475 476.82149 148.81249 467.6875 148.8125 L 371.90625 148.8125 L 278.625 148.8125 C 269.491 148.8125 267.57274 142.35474 268.46875 135.84375 L 278.09375 67.90625 C 279.41475 59.65225 282.25199 54.21875 293.125 54.21875 z M 285.6875 192.90625 C 295.40151 192.90625 303.28125 200.65275 303.28125 210.21875 C 303.28124 219.78475 295.4015 227.53125 285.6875 227.53125 C 275.97451 227.53126 268.09375 219.78475 268.09375 210.21875 C 268.09374 200.65275 275.9745 192.90625 285.6875 192.90625 z M 460.625 192.90625 C 470.338 192.90625 478.18749 200.65275 478.1875 210.21875 C 478.1875 219.78475 470.338 227.53126 460.625 227.53125 C 450.912 227.53125 443.03124 219.78475 443.03125 210.21875 C 443.03125 200.65275 450.912 192.90625 460.625 192.90625 z " id="path2184" style="fill:#000000;stroke:none"/><path d="" id="path2194" style="fill:#ffffff;stroke:none"/><path d="" id="path2200" style="fill:#ffffff;stroke:none"/></svg>